<svg width="27" height="27" viewBox="0 0 27 27" fill="none" xmlns="http://www.w3.org/2000/svg">
<path d="M9.24417 1L5.3225 4.9325" stroke="#748749" stroke-width="2" stroke-miterlimit="10" stroke-linecap="round" stroke-linejoin="round"/>
<path d="M16.1558 1L20.0775 4.9325" stroke="#748749" stroke-width="2" stroke-miterlimit="10" stroke-linecap="round" stroke-linejoin="round"/>
<path d="M1.86667 7.3375C1.86667 5.33334 2.93917 5.17084 4.27167 5.17084H21.1283C22.4608 5.17084 23.5333 5.33334 23.5333 7.3375C23.5333 9.66667 22.4608 9.50417 21.1283 9.50417H4.27167C2.93917 9.50417 1.86667 9.66667 1.86667 7.3375Z" stroke="#748749" stroke-width="2"/>
<path d="M10.2733 14V17.8458" stroke="#748749" stroke-width="2" stroke-linecap="round"/>
<path d="M15.2567 14V17.8458" stroke="#748749" stroke-width="2" stroke-linecap="round"/>
<path d="M3.49167 9.66666L5.01917 19.0267C5.36584 21.1283 6.2 22.6667 9.29833 22.6667H15.8308C19.2 22.6667 19.6983 21.1933 20.0883 19.1567L21.9083 9.66666" stroke="#748749" stroke-width="2" stroke-linecap="round"/>
</svg>
