<svg width="26" height="26" viewBox="0 0 26 26" fill="none" xmlns="http://www.w3.org/2000/svg">
<path d="M13.0217 3.1525C9.43584 3.1525 6.52167 6.06666 6.52167 9.6525V12.7833C6.52167 13.4442 6.24 14.4517 5.90417 15.015L4.65834 17.0842C3.88917 18.3625 4.42 19.7817 5.82834 20.2583C10.4975 21.8183 15.535 21.8183 20.2042 20.2583C21.515 19.825 22.0892 18.2758 21.3742 17.0842L20.1283 15.015C19.8033 14.4517 19.5217 13.4442 19.5217 12.7833V9.6525C19.5217 6.0775 16.5967 3.1525 13.0217 3.1525Z" stroke="#748749" stroke-width="1.8" stroke-miterlimit="10" stroke-linecap="round"/>
<path d="M15.0258 3.46665C14.69 3.36915 14.3433 3.29332 13.9858 3.24999C12.9458 3.11999 11.9492 3.19582 11.0175 3.46665C11.3317 2.66499 12.1117 2.10165 13.0217 2.10165C13.9317 2.10165 14.7117 2.66499 15.0258 3.46665Z" stroke="#748749" stroke-width="1.8" stroke-miterlimit="10" stroke-linecap="round" stroke-linejoin="round"/>
<path d="M16.2717 20.6483C16.2717 22.4358 14.8092 23.8983 13.0217 23.8983C12.1333 23.8983 11.31 23.53 10.725 22.945C10.14 22.36 9.77167 21.5367 9.77167 20.6483" stroke="#748749" stroke-width="1.8" stroke-miterlimit="10"/>
</svg>
